<?xml version="1.0" encoding="UTF-8" standalone="no"?>
<svg
   xmlns:dc="http://purl.org/dc/elements/1.1/"
   xmlns:cc="http://creativecommons.org/ns#"
   xmlns:rdf="http://www.w3.org/1999/02/22-rdf-syntax-ns#"
   xmlns:svg="http://www.w3.org/2000/svg"
   xmlns="http://www.w3.org/2000/svg"
   viewBox="0 0 136.06667 21.799999"
   height="21.799999"
   width="136.06667"
   xml:space="preserve"
   id="svg2"
   version="1.1"><metadata
     id="metadata8"><rdf:RDF><cc:Work
         rdf:about=""><dc:format>image/svg+xml</dc:format><dc:type
           rdf:resource="http://purl.org/dc/dcmitype/StillImage" /></cc:Work></rdf:RDF></metadata><defs
     id="defs6" /><g
     transform="matrix(1.3333333,0,0,-1.3333333,0,21.8)"
     id="g10"><g
       transform="scale(0.1)"
       id="g12"><path
         id="path14"
         style="fill:#244ca7;fill-opacity:1;fill-rule:nonzero;stroke:none"
         d="M -0.00390625,161.098 H 23.3086 v -47.364 c 7.9258,10.297 17.1289,15.446 27.6133,15.446 5.8047,0 11.1836,-1.344 16.1445,-4.024 4.9609,-2.687 8.8477,-6.34 11.6563,-10.953 3.2421,-5.43 4.8671,-13.387 4.8671,-23.871 V 33.3242 H 60.2813 v 52.2305 c 0,6.0547 -0.9336,10.9844 -2.8086,14.7933 -2.8711,5.617 -7.6133,8.425 -14.2266,8.425 -6.8086,0 -12.1406,-2.683 -16.0078,-8.05 -1.5,-2.0628 -2.5235,-4.3519 -3.086,-6.8792 C 23.5898,91.3125 23.3086,87.6172 23.3086,82.75 V 33.3242 H -0.00390625 V 161.098" /><path
         id="path16"
         style="fill:#244ca7;fill-opacity:1;fill-rule:nonzero;stroke:none"
         d="M 180.531,126.648 V 33.3242 h -23.312 v 9.5508 c -3.989,-3.6914 -7.641,-6.3672 -10.953,-8.0547 -5.43,-2.6758 -11.043,-4.0234 -16.848,-4.0234 -8.176,0 -15.105,2.5586 -20.777,7.6758 -6.368,5.7421 -9.8285,14.1406 -10.391,25.1836 -0.1289,2.6171 -0.1914,6.2695 -0.1914,10.9492 V 126.648 H 121.371 V 75.8242 c 0,-7.1172 0.434,-11.9531 1.309,-14.5117 2.308,-6.6797 7.363,-10.0195 15.164,-10.0195 6.496,0 11.547,2.2851 15.168,6.8359 2.804,3.4961 4.207,8.9844 4.207,16.4766 v 52.0425 h 23.312" /><path
         id="path18"
         style="fill:#244ca7;fill-opacity:1;fill-rule:nonzero;stroke:none"
         d="m 240.309,109.613 c -7.618,0 -13.508,-3.148 -17.688,-9.453 -3.625,-5.492 -5.43,-12.3241 -5.43,-20.4959 0,-8.7422 1.993,-15.918 5.989,-21.5352 1.933,-2.6836 4.445,-4.8242 7.535,-6.4062 3.09,-1.5899 6.285,-2.3946 9.594,-2.3946 6.738,0 12.136,2.7266 16.199,8.1953 4.047,5.461 6.082,12.7461 6.082,21.8555 0,9.7383 -2.246,17.3477 -6.742,22.8441 -3.868,4.738 -9.051,7.207 -15.539,7.39 z m -45.305,51.485 h 23.309 V 115.98 c 7.238,8.801 16.382,13.2 27.425,13.2 9.739,0 18.219,-3.434 25.461,-10.297 10.235,-9.738 15.352,-22.7814 15.352,-39.1291 0,-12.1719 -2.903,-22.5937 -8.703,-31.2656 -7.864,-11.793 -18.66,-17.6914 -32.391,-17.6914 -5.492,0 -10.25,0.9375 -14.273,2.8125 -4.024,1.8633 -8.321,5.1445 -12.871,9.8242 V 33.3242 H 195.004 V 161.098" /><path
         id="path20"
         style="fill:#244ca7;fill-opacity:1;fill-rule:nonzero;stroke:none"
         d="m 359.809,89.957 c -0.75,6.1172 -2.594,10.918 -5.524,14.418 -4,4.613 -9.43,6.922 -16.289,6.922 -5.992,0 -10.859,-1.84 -14.601,-5.52 -3.743,-3.683 -6.086,-8.9567 -7.02,-15.82 z m 24.148,-15.3515 h -68.336 c 0.813,-7.4922 2.965,-13.3907 6.461,-17.6875 4.055,-5.0586 9.645,-7.5899 16.758,-7.5899 9.105,0 15.789,4.0274 20.031,12.0821 h 24.246 c -2.25,-7.4883 -6.344,-13.9258 -12.265,-19.2891 -8.364,-7.5469 -18.973,-11.3242 -31.825,-11.3242 -13.293,0 -24.312,4.3633 -33.043,13.1054 -9.488,9.4219 -14.23,21.4649 -14.23,36.1329 0,16.2226 5.113,28.9848 15.351,38.2848 7.922,7.235 17.942,10.86 30.051,10.86 14.348,0 25.66,-4.821 33.93,-14.465 8.266,-9.641 12.559,-23.0119 12.871,-40.1095" /><path
         id="path22"
         style="fill:#244ca7;fill-opacity:1;fill-rule:nonzero;stroke:none"
         d="m 393.84,126.648 h 23.305 v -12.914 c 6.242,9.922 14.011,14.883 23.312,14.883 1.434,0 3.426,-0.156 5.992,-0.469 v -20.035 c -1.629,0.067 -2.965,0.098 -4.023,0.098 -7.805,0 -13.965,-2.449 -18.492,-7.348 -4.528,-4.9021 -6.789,-11.5974 -6.789,-20.0778 V 33.3242 H 393.84 v 93.3238" /><path
         id="path24"
         style="fill:#244ca7;fill-opacity:1;fill-rule:nonzero;stroke:none"
         d="m 490.504,118.227 c -10.238,0 -18.008,-3.93 -23.309,-11.797 -4.683,-6.8636 -7.023,-15.5081 -7.023,-25.9261 0,-11.3008 2.437,-20.1875 7.305,-26.6836 5.425,-7.1758 12.945,-10.7578 22.558,-10.7578 9.363,0 16.692,3.3398 22,10.0156 5.301,6.6719 7.953,15.9414 7.953,27.8008 0,11.8555 -2.465,20.9651 -7.394,27.3321 -4.992,6.555 -12.356,9.891 -22.09,10.016 z m 40.25,7.113 V 48.8633 c 0,-8.3594 -0.359,-14.9024 -1.074,-19.6094 -0.723,-4.707 -1.992,-8.6641 -3.789,-11.8476 C 519.457,5.80469 507.258,0.00390625 489.285,0.00390625 c -10.551,0 -18.883,2.05078375 -24.988,6.17187375 -6.121,4.12112 -9.774,10.14452 -10.953,18.06642 h 11.699 c 0.375,-4.5508 2.211,-7.9609 5.52,-10.207 5.175,-3.4844 11.796,-5.23051 19.843,-5.23051 7.926,0 14.516,2.08981 19.754,6.26561 2.871,2.375 4.942,5.0508 6.223,8.0469 1.281,3 2.078,7.1523 2.39,12.4531 0.122,2.2461 0.247,5.461 0.375,9.6406 0,0.9375 0.024,2.1875 0.094,3.75 -3.816,-4.4336 -6.992,-7.5195 -9.547,-9.2695 -5.683,-4.0625 -12.519,-6.082 -20.504,-6.082 -12.48,0 -22.406,4.3633 -29.765,13.1054 -7.055,8.2891 -10.574,19.5899 -10.574,33.879 0,12.3593 3.015,22.8082 9.074,31.3592 7.492,10.61 17.906,15.918 31.265,15.918 12.418,0 22.434,-5.215 30.051,-15.637 v 13.106 h 11.512" /><path
         id="path26"
         style="fill:#244ca7;fill-opacity:1;fill-rule:nonzero;stroke:none"
         d="M 549.066,33.3242 V 125.34 h 11.512 v -15.352 c 3.555,6.18 7.266,10.516 11.133,13.016 3.879,2.488 8.742,3.738 14.609,3.738 1.368,0 2.903,-0.125 4.582,-0.371 v -11.234 c -1.808,0.25 -3.117,0.375 -3.925,0.375 -4.875,0 -9.395,-1.543 -13.575,-4.633 -4.179,-3.09 -7.363,-7.191 -9.55,-12.3087 -2.188,-5.0547 -3.274,-12.3906 -3.274,-22 V 33.3242 h -11.512" /><path
         id="path28"
         style="fill:#244ca7;fill-opacity:1;fill-rule:nonzero;stroke:none"
         d="m 633.273,118.133 c -7.304,0 -13.699,-2.336 -19.187,-7.02 -7.863,-6.679 -11.797,-17.5036 -11.797,-32.4802 0,-10.9219 2.215,-19.6367 6.649,-26.1172 5.363,-7.9883 13.476,-11.9843 24.335,-11.9843 10.793,0 18.879,3.996 24.25,11.9843 4.422,6.4805 6.641,15.0664 6.641,25.7422 0,10.793 -2.062,19.5625 -6.172,26.3012 -2.57,4.179 -6.015,7.457 -10.351,9.832 -4.336,2.367 -9.121,3.617 -14.368,3.742 z m 0,9.738 c 14.29,0 25.489,-5.805 33.606,-17.414 5.867,-8.426 8.797,-19.1875 8.797,-32.2929 0,-13.2383 -3.153,-23.9297 -9.453,-32.1055 -7.86,-10.1758 -18.817,-15.2617 -32.852,-15.2617 -14.226,0 -25.273,5.0859 -33.144,15.2617 -6.297,8.1758 -9.454,19.0937 -9.454,32.7578 0,12.793 2.93,23.3396 8.801,31.6406 8.055,11.359 19.285,17.16 33.699,17.414" /><path
         id="path30"
         style="fill:#244ca7;fill-opacity:1;fill-rule:nonzero;stroke:none"
         d="M 761.664,125.34 V 33.3242 h -11.516 v 11.1446 c -4.558,-5.1172 -8.972,-8.6836 -13.242,-10.6758 -4.277,-1.9922 -9.687,-2.9961 -16.238,-2.9961 -15.859,0 -25.781,5.8672 -29.766,17.5976 -1.32,3.8047 -1.972,10.4883 -1.972,20.0391 V 125.34 h 11.511 V 67.7695 c 0,-5.4297 0.149,-9.1914 0.422,-11.2812 0.282,-2.0899 0.957,-4.1289 2.02,-6.125 3.371,-6.6211 9.855,-9.9297 19.465,-9.9297 8.797,0 15.632,2.7344 20.496,8.1953 4.875,5.457 7.304,13.1524 7.304,23.0742 V 125.34 h 11.516" /><path
         id="path32"
         style="fill:#244ca7;fill-opacity:1;fill-rule:nonzero;stroke:none"
         d="m 821.254,118.227 c -10.363,0 -18.379,-4.149 -24.063,-12.45 -3.984,-5.9293 -5.988,-14.5075 -5.988,-25.7418 0,-11.9258 2.004,-21.125 5.988,-27.6211 2.313,-3.7383 5.528,-6.6875 9.649,-8.836 4.121,-2.1562 8.613,-3.2304 13.476,-3.2304 9.864,0 17.469,3.8671 22.84,11.6093 4.934,7.0391 7.395,16.0938 7.395,27.1446 0,10.2929 -1.836,18.7187 -5.52,25.2734 -5.183,9.105 -13.105,13.727 -23.777,13.852 z M 791.672,0.277344 H 780.16 V 125.34 h 11.512 v -13.106 c 3.242,4.246 6.308,7.399 9.172,9.454 5.867,4.121 12.976,6.183 21.347,6.183 12.664,0 22.52,-4.84 29.579,-14.512 6.867,-9.425 10.293,-20.5309 10.293,-33.3238 0,-6.3633 -0.938,-12.6563 -2.801,-18.8594 -1.875,-6.211 -4.434,-11.5625 -7.676,-16.0547 -3.438,-4.8125 -8.02,-8.4258 -13.762,-10.8594 -5.429,-2.3047 -11.297,-3.4648 -17.605,-3.4648 -6.36,0 -11.739,1.0937 -16.145,3.2773 -4.402,2.1797 -8.535,5.8321 -12.402,10.9492 V 0.277344" /><path
         id="path34"
         style="fill:#244ca7;fill-opacity:1;fill-rule:nonzero;stroke:none"
         d="m 1020.47,62.1328 c 0,17.2969 -14.04,31 -31.005,31 h -31.328 v -31 c 0,-17.293 14.035,-31.3359 31.328,-31.3359 16.965,0 31.005,14.0429 31.005,31.3359" /><path
         id="path36"
         style="fill:#244ca7;fill-opacity:1;fill-rule:nonzero;stroke:none"
         d="m 887.746,62.1328 c 0,17.2969 14.024,31 31.328,31 h 31.008 v -31 c 0,-17.293 -14.035,-31.3359 -31.008,-31.3359 -17.304,0 -31.328,14.0429 -31.328,31.3359" /><path
         id="path38"
         style="fill:#244ca7;fill-opacity:1;fill-rule:nonzero;stroke:none"
         d="m 887.746,132.195 c 0,-17.297 14.024,-31.004 31.32,-31.004 h 31.016 v 31.004 c 0,17.297 -14.035,31.328 -31.016,31.328 -17.296,0 -31.32,-14.031 -31.32,-31.328" /><path
         id="path40"
         style="fill:#244ca7;fill-opacity:1;fill-rule:nonzero;stroke:none"
         d="m 1020.47,132.195 c 0,-17.297 -14.04,-31.004 -31.005,-31.004 h -31.328 v 31.004 c 0,17.297 14.035,31.328 31.328,31.328 16.965,0 31.005,-14.031 31.005,-31.328" /></g></g></svg>